HIERARCHY
ROOT SpineBase
{
  OFFSET 0.000000 0.000000 0.000000
  CHANNELS 6 Xposition Yposition Zposition Zrotation Xrotation Yrotation
  JOINT SpineMid
  {
    OFFSET 0.000000 31.949205 0.000000
    CHANNELS 3 Zrotation Xrotation Yrotation
    JOINT SpineShoulder
    {
      OFFSET -0.060471 23.713001 -0.870273
      CHANNELS 3 Zrotation Xrotation Yrotation
      JOINT Neck
      {
        OFFSET -0.014399 7.846500 -0.650890
        CHANNELS 3 Zrotation Xrotation Yrotation
        JOINT Head
        {
          OFFSET 5.862527 11.456353 3.437367
          CHANNELS 3 Zrotation Xrotation Yrotation
          End Site
          {
            OFFSET 0 0 0
          }
        }
      }
      JOINT ShoulderLeft
      {
        OFFSET -12.873559 -1.855572 -11.702287
        CHANNELS 3 Zrotation Xrotation Yrotation
        JOINT ElbowLeft
        {
          OFFSET -9.601746 -20.711206 -5.393029
          CHANNELS 3 Zrotation Xrotation Yrotation
          JOINT WristLeft
          {
            OFFSET 18.711772 -11.596788 -4.423080
            CHANNELS 3 Zrotation Xrotation Yrotation
            JOINT HandLeft
            {
              OFFSET 6.779949 -2.184336 3.859401
              CHANNELS 3 Zrotation Xrotation Yrotation
              JOINT HandTipLeft
              {
                OFFSET 7.918116 0.883959 -1.883897
                CHANNELS 3 Zrotation Xrotation Yrotation
                End Site
                {
                  OFFSET 0 0 0
                }
              }
              JOINT ThumbLeft
              {
                OFFSET -1.836067 -7.841882 1.550819
                CHANNELS 3 Zrotation Xrotation Yrotation
                End Site
                {
                  OFFSET 0 0 0
                }
              }
            }
          }
        }
      }
      JOINT ShoulderRight
      {
        OFFSET 13.228113 -3.769893 10.123938
        CHANNELS 3 Zrotation Xrotation Yrotation
        JOINT ElbowRight
        {
          OFFSET 2.616930 -21.884373 6.233049
          CHANNELS 3 Zrotation Xrotation Yrotation
          JOINT WristRight
          {
            OFFSET 0.830709 -12.384634 -20.893532
            CHANNELS 3 Zrotation Xrotation Yrotation
            JOINT HandRight
            {
              OFFSET -3.806243 -3.840780 -4.895035
              CHANNELS 3 Zrotation Xrotation Yrotation
              JOINT HandTipRight
              {
                OFFSET 1.611479 -3.432992 -4.937543
                CHANNELS 3 Zrotation Xrotation Yrotation
                End Site
                {
                  OFFSET 0 0 0
                }
              }
              JOINT ThumbRight
              {
                OFFSET -2.787344 -8.765079 1.772230
                CHANNELS 3 Zrotation Xrotation Yrotation
                End Site
                {
                  OFFSET 0 0 0
                }
              }
            }
          }
        }
      }
    }
  }
  JOINT HipLeft
  {
    OFFSET -5.221060 1.480774 -8.297235
    CHANNELS 3 Zrotation Xrotation Yrotation
    JOINT KneeLeft
    {
      OFFSET -9.295698 -34.951520 -1.917840
      CHANNELS 3 Zrotation Xrotation Yrotation
      JOINT AnkleLeft
      {
        OFFSET -13.074861 -34.535431 1.839880
        CHANNELS 3 Zrotation Xrotation Yrotation
        JOINT FootLeft
        {
          OFFSET -3.780643 -8.143418 -8.490695
          CHANNELS 3 Zrotation Xrotation Yrotation
          End Site
          {
            OFFSET 0 0 0
          }
        }
      }
    }
  }
  JOINT HipRight
  {
    OFFSET 5.812372 0.190418 0.993332
    CHANNELS 3 Zrotation Xrotation Yrotation
    JOINT KneeRight
    {
      OFFSET -0.814633 -36.580507 2.416772
      CHANNELS 3 Zrotation Xrotation Yrotation
      JOINT AnkleRight
      {
        OFFSET -6.153896 -36.018957 7.505297
        CHANNELS 3 Zrotation Xrotation Yrotation
        JOINT FootRight
        {
          OFFSET 1.655623 -7.428753 -6.942300
          CHANNELS 3 Zrotation Xrotation Yrotation
          End Site
          {
            OFFSET 0 0 0
          }
        }
      }
    }
  }
}
MOTION
Frames: 5
Frame Time: 0.033333
-29.927266 78.532223 347.628362 -3.077960 2.319916 -33.889724 -0.382426 -0.049473 33.830184 -0.215507 0.040350 -0.181769 -0.011614 -19.602127 9.836436 0.000000 0.000000 0.000000 -0.438737 7.547682 -2.947460 31.587711 2.782684 9.628659 10.373542 -21.456871 17.153968 -23.250716 20.366533 -4.560626 0.000000 0.000000 0.000000 0.000000 0.000000 0.000000 9.345625 42.703670 6.366058 -18.156281 -2.906878 1.596632 -41.244674 17.435933 -2.754188 56.604565 -0.736768 17.758642 0.000000 0.000000 0.000000 0.000000 0.000000 0.000000 3.300451 0.561758 33.711235 0.082893 0.686138 -0.364398 -0.756787 0.804739 0.201293 0.000000 0.000000 0.000000 3.124381 0.372670 33.922069 0.277051 -0.884924 0.040133 -1.663577 -4.066285 0.611322 0.000000 0.000000 0.000000
-29.942205 78.507798 347.645185 -3.095030 2.317545 -33.957110 -0.397549 -0.052289 33.896635 -0.224334 0.040792 -0.184117 0.184843 -19.762453 9.914240 0.000000 0.000000 0.000000 -0.120586 7.462142 -2.994878 31.423075 2.944668 9.652499 10.147644 -20.165851 18.871300 -20.250906 19.923131 -10.331870 0.000000 0.000000 0.000000 0.000000 0.000000 0.000000 9.539744 42.001459 6.277764 -18.109023 -2.019090 1.792001 -41.363031 18.037398 -2.874887 60.339327 -0.126188 16.339192 0.000000 0.000000 0.000000 0.000000 0.000000 0.000000 3.332847 0.549671 33.787328 0.080515 0.771164 -0.392825 -0.653787 1.061438 -0.022200 0.000000 0.000000 0.000000 3.165129 0.419994 33.992068 0.235524 -0.895724 0.037332 -1.770533 -5.564977 0.344263 0.000000 0.000000 0.000000
-29.956255 78.479792 347.653566 -3.114544 2.310060 -33.973548 -0.403429 -0.058132 33.912055 -0.224178 0.039849 -0.185379 0.357368 -19.887842 9.981463 0.000000 0.000000 0.000000 0.053835 7.409405 -3.010536 31.305811 3.079858 9.692784 9.582967 -19.078922 20.003256 -17.488510 19.085256 -15.116059 0.000000 0.000000 0.000000 0.000000 0.000000 0.000000 9.615213 42.159830 6.291744 -18.214389 -2.725909 1.614291 -41.088558 19.363192 -2.725510 63.996952 0.316861 14.958168 0.000000 0.000000 0.000000 0.000000 0.000000 0.000000 3.363674 0.541256 33.811954 0.109635 0.822312 -0.406934 -0.596032 1.290471 -0.217707 0.000000 0.000000 0.000000 3.224567 0.451265 34.011731 0.188625 -0.880110 0.033495 -2.096484 -7.163766 0.244842 0.000000 0.000000 0.000000
-29.965443 78.456573 347.657239 -3.133252 2.294617 -33.948360 -0.404421 -0.060041 33.886019 -0.218424 0.040982 -0.185644 0.459828 -19.994653 10.044092 0.000000 0.000000 0.000000 0.007895 7.409986 -2.983889 31.015744 3.140921 9.851635 8.936086 -18.279859 20.398670 -15.382924 18.058377 -18.224125 0.000000 0.000000 0.000000 0.000000 0.000000 0.000000 9.422145 42.685918 6.369327 -17.995164 -3.715340 1.307557 -41.472493 19.226447 -2.126190 67.454921 8.192519 13.154508 0.000000 0.000000 0.000000 0.000000 0.000000 0.000000 3.375267 0.534506 33.793677 0.167920 0.874813 -0.422100 -0.591434 1.924100 -0.558003 0.000000 0.000000 0.000000 3.298053 0.463953 33.990087 0.138614 -0.835418 0.028760 -2.175388 -7.955796 0.113830 0.000000 0.000000 0.000000
-29.966487 78.446203 347.651616 -3.152721 2.279462 -33.866310 -0.414569 -0.074126 33.802076 -0.218840 0.037162 -0.187418 0.717450 -20.077298 10.094866 0.000000 0.000000 0.000000 -0.144065 7.474470 -2.938107 30.737465 3.119678 10.041617 9.744151 -17.571216 21.700320 -15.062983 17.616477 -22.684511 0.000000 0.000000 0.000000 0.000000 0.000000 0.000000 8.868778 43.730318 6.554932 -17.504017 -5.086999 0.985567 -42.009272 18.987994 -1.546921 65.389945 3.130057 13.850486 0.000000 0.000000 0.000000 0.000000 0.000000 0.000000 3.382249 0.538246 33.714683 0.198822 0.914685 -0.435318 -0.593080 2.513922 -0.843183 0.000000 0.000000 0.000000 3.887491 -0.133377 33.933575 -0.000000 0.000000 0.000000 -2.110356 -8.208215 -0.012412 0.000000 0.000000 0.000000
